<?xml version="1.0" encoding="UTF-8" standalone="no"?>
<!-- Created with Inkscape (http://www.inkscape.org/) -->

<svg
   xmlns:dc="http://purl.org/dc/elements/1.1/"
   xmlns:cc="http://creativecommons.org/ns#"
   xmlns:rdf="http://www.w3.org/1999/02/22-rdf-syntax-ns#"
   xmlns:svg="http://www.w3.org/2000/svg"
   xmlns="http://www.w3.org/2000/svg"
   xmlns:sodipodi="http://sodipodi.sourceforge.net/DTD/sodipodi-0.dtd"
   xmlns:inkscape="http://www.inkscape.org/namespaces/inkscape"
   width="50"
   height="50"
   viewBox="0 0 13.229166 13.229167"
   version="1.1"
   id="svg8"
   inkscape:version="0.92.4 (5da689c313, 2019-01-14)"
   sodipodi:docname="Whatsapp3.svg">
  <defs
     id="defs2" />
  <sodipodi:namedview
     id="base"
     pagecolor="#ffffff"
     bordercolor="#666666"
     borderopacity="1.0"
     inkscape:pageopacity="0.0"
     inkscape:pageshadow="2"
     inkscape:zoom="6.0104075"
     inkscape:cx="26.556748"
     inkscape:cy="34.471701"
     inkscape:document-units="px"
     inkscape:current-layer="layer3"
     showgrid="false"
     units="px"
     inkscape:window-width="1920"
     inkscape:window-height="1017"
     inkscape:window-x="-8"
     inkscape:window-y="-8"
     inkscape:window-maximized="1" />
  <metadata
     id="metadata5">
    <rdf:RDF>
      <cc:Work
         rdf:about="">
        <dc:format>image/svg+xml</dc:format>
        <dc:type
           rdf:resource="http://purl.org/dc/dcmitype/StillImage" />
        <dc:title></dc:title>
      </cc:Work>
    </rdf:RDF>
  </metadata>
  <g
     inkscape:label="Capa 1"
     inkscape:groupmode="layer"
     id="layer1"
     transform="translate(0,-283.77081)"
     style="display:none">
    <g
       id="g915"
       transform="translate(15.672671,-4.933699)">
      <g
         transform="matrix(0.11259704,0,0,0.11259704,10.936594,296.24573)"
         id="g928">
        <g
           id="g914">
          <path
             sodipodi:nodetypes="ccccc"
             inkscape:connector-curvature="0"
             id="path878"
             d="m -230.14015,34.887431 v -84.520057 c -0.18011,-5.347511 1.66304,-10.363008 8.62717,-10.740173 l 86.98522,-0.352167 z"
             style="fill:#1c9958;fill-opacity:1;stroke:none;stroke-width:0.26458332px;stroke-linecap:butt;stroke-linejoin:miter;stroke-opacity:1" />
          <path
             sodipodi:nodetypes="ccccc"
             inkscape:connector-curvature="0"
             id="path899"
             d="m -230.13862,34.893871 69.60097,-69.600978 10.33432,8.840195 -70.22353,70.099019 c -6.26854,0.486904 -9.97657,-4.416911 -9.71176,-9.338236 z"
             style="fill:#fed83c;fill-opacity:1;stroke:none;stroke-width:0.26458332px;stroke-linecap:butt;stroke-linejoin:miter;stroke-opacity:1" />
        </g>
        <g
           id="g919"
           transform="translate(-15.700963,-54.875326)">
          <path
             sodipodi:nodetypes="ccccc"
             inkscape:connector-curvature="0"
             id="path878-0"
             d="M -109.31351,3.5285344 V 88.04859 c 0.17941,5.347511 -1.65653,10.363007 -8.59341,10.740172 l -86.64487,0.352167 z"
             style="fill:#ccccca;fill-opacity:1;stroke:none;stroke-width:0.26406518px;stroke-linecap:butt;stroke-linejoin:miter;stroke-opacity:1" />
          <path
             sodipodi:nodetypes="ccccc"
             inkscape:connector-curvature="0"
             id="path897"
             d="m -161.96429,56.471622 9.63302,-9.633016 43.02845,42.654917 c 0.0769,5.79401 -4.18019,10.20417 -9.67575,9.59029 z"
             style="fill:#efefef;fill-opacity:1;stroke:none;stroke-width:0.26458332px;stroke-linecap:butt;stroke-linejoin:miter;stroke-opacity:1" />
          <path
             sodipodi:nodetypes="ccccc"
             inkscape:connector-curvature="0"
             id="path901"
             d="m -118.93304,99.140929 -85.61875,-0.11226 42.63303,-42.499936 z"
             style="fill:#3f7bf2;fill-opacity:1;stroke:none;stroke-width:0.26458332px;stroke-linecap:butt;stroke-linejoin:miter;stroke-opacity:1" />
        </g>
      </g>
      <path
         sodipodi:nodetypes="ccccccccccc"
         inkscape:connector-curvature="0"
         id="path946"
         d="m -11.414606,291.38616 0.530711,-0.5237 c -1.242274,-1.05905 -3.065075,-0.21304 -3.013624,1.46135 0.08452,0.53154 0.427751,1.65119 1.781553,1.65466 0.519301,0.0677 1.617631,-0.21729 1.724902,-1.44733 -0.0041,-0.21644 0.0066,-0.4757 0.0025,-0.64932 l -1.698881,-10e-4 -0.0017,0.68355 0.952096,-0.008 c -0.120754,0.74 -1.354613,1.09296 -1.923161,0.0991 -0.51354,-1.23184 0.956443,-1.98235 1.645598,-1.2689 z"
         style="fill:#ffffff;stroke:none;stroke-width:0.0297913px;stroke-linecap:butt;stroke-linejoin:miter;stroke-opacity:1" />
    </g>
  </g>
  <g
     inkscape:groupmode="layer"
     id="layer2"
     inkscape:label="Capa 2"
     style="display:none">
    <g
       id="g869"
       transform="matrix(0.18549138,0,0,0.14205918,3.3292491,10.455038)"
       style="fill:#ff0000;fill-opacity:1">
      <g
         id="g864"
         style="fill:#ff0000;fill-opacity:1">
        <circle
           style="opacity:1;fill:#ff0000;fill-opacity:1;stroke:none;stroke-width:1.58749998;stroke-miterlimit:4;stroke-dasharray:none;stroke-opacity:1"
           id="path847"
           cx="17.711519"
           cy="-43.080395"
           r="29.384314" />
      </g>
      <path
         sodipodi:nodetypes="cccc"
         inkscape:connector-curvature="0"
         id="path853"
         d="M -4.7313725,-24.621813 39.718625,-23.8125 C 28.770291,-12.22296 21.153762,3.0542148 17.742647,18.396323 13.684139,2.6068174 6.8666286,-12.393356 -4.7313725,-24.621813 Z"
         style="fill:#ff0000;fill-opacity:1;stroke:none;stroke-width:0.26458332px;stroke-linecap:butt;stroke-linejoin:miter;stroke-opacity:1" />
    </g>
    <ellipse
       style="opacity:1;fill:#ffffff;fill-opacity:1;stroke:none;stroke-width:0.24801995;stroke-miterlimit:4;stroke-dasharray:none;stroke-opacity:1"
       id="path845"
       cx="6.5948701"
       cy="4.3670673"
       rx="1.7970464"
       ry="1.4857719" />
    <rect
       style="opacity:0.3;fill:#ffffff;fill-opacity:1;stroke:none;stroke-width:1.68724608;stroke-miterlimit:4;stroke-dasharray:none;stroke-opacity:1"
       id="rect860"
       width="6.614583"
       height="13.229166"
       x="6.6145835"
       y="4.691162e-07" />
  </g>
  <g
     inkscape:groupmode="layer"
     id="layer3"
     inkscape:label="Capa 3"
     style="display:inline">
    <path
       style="fill:#ffffff;stroke:none;stroke-width:0.0325799px;stroke-linecap:butt;stroke-linejoin:miter;stroke-opacity:1"
       d="m 5.3776349,4.5303365 c 0.120661,0.3120218 0.539843,0.9099475 0.08115,1.2093455 -0.252011,0.1850569 -0.425078,0.3970707 -0.09199,0.7819175 0.5295,0.6721956 1.083496,1.1011585 1.594926,1.3528315 0.213351,0.1093458 0.443992,0.2902153 0.643507,-0.1262941 0.238004,-0.2363747 0.327951,-0.691313 0.965897,-0.3372978 0.483092,0.2583143 1.30492,0.304918 0.873908,1.1345471 -0.638028,1.0774284 -1.341968,0.8146454 -2.039118,0.6899272 -1.081662,-0.3290442 -3.152355,-1.6752352 -3.698506,-3.6237057 -0.123844,-0.8169218 0.03213,-0.913271 0.218976,-1.264162 0.273791,-0.3918928 0.453436,-0.4716208 0.658212,-0.4733359 0.459988,-0.00385 0.575721,-0.042805 0.793038,0.6562267 z"
       id="path861"
       inkscape:connector-curvature="0"
       sodipodi:nodetypes="ccccccccccsc" />
    <path
       style="opacity:1;fill:#ffffff;fill-opacity:1;stroke:#1bd741;stroke-width:0.13009392;stroke-miterlimit:4;stroke-dasharray:none;stroke-opacity:1"
       d="m 0.83358095,12.366496 c 0,-0.02981 0.00942,-0.05421 0.0209357,-0.05421 0.0115133,0 0.0274065,-0.04879 0.0353168,-0.108411 0.007905,-0.05963 0.0221794,-0.108412 0.0317101,-0.108412 0.009531,0 0.0240326,-0.05366 0.0322273,-0.119252 0.008201,-0.06559 0.0231977,-0.119253 0.033338,-0.119253 0.0101342,0 0.0249081,-0.04879 0.0328183,-0.108412 0.00791,-0.05963 0.021757,-0.108411 0.030772,-0.108411 0.00901,0 0.023095,-0.05366 0.03129,-0.119253 0.0082,-0.06559 0.022698,-0.119253 0.032229,-0.119253 0.00953,0 0.0238,-0.04879 0.03171,-0.108412 0.00791,-0.05963 0.022678,-0.108411 0.032818,-0.108411 0.010134,0 0.025142,-0.05366 0.033337,-0.119253 0.0082,-0.06559 0.022698,-0.119253 0.032228,-0.119253 0.00953,0 0.0238,-0.04878 0.03171,-0.108412 0.0079,-0.05963 0.021704,-0.108411 0.030654,-0.108411 0.00895,0 0.027035,-0.05122 0.040189,-0.113832 0.024683,-0.117477 0.063943,-0.264536 0.1258963,-0.471587 C 1.5173894,9.9949088 1.5579161,9.84835 1.6046649,9.667047 L 1.6410063,9.526112 1.5429181,9.3309711 C 1.2225227,8.6935609 1.000516,7.9648473 0.90877679,7.2494683 0.864769,6.9062933 0.8652443,6.2248199 0.90976189,5.8833277 1.1284045,4.2049162 2.0959111,2.6865617 3.5695055,1.7092616 3.8321818,1.5350521 4.4497058,1.210942 4.5189479,1.210942 c 0.019443,0 0.04462,-0.0087 0.055948,-0.019328 C 4.5862249,1.180984 4.6735509,1.146375 4.7689531,1.114705 5.8475133,0.75666885 6.9795452,0.71176659 8.0572442,0.98427494 8.9542502,1.2110935 9.9274383,1.7313293 10.567755,2.3263154 c 0.267375,0.2484459 0.578454,0.5835788 0.617058,0.6647715 0.01076,0.022644 0.02705,0.04117 0.03618,0.04117 0.0091,0 0.03904,0.036589 0.06647,0.081309 0.05138,0.083778 0.0551,0.088931 0.127531,0.1767761 0.02363,0.028657 0.04296,0.064201 0.04296,0.078989 0,0.014787 0.01464,0.032502 0.03252,0.039366 0.01789,0.00686 0.03252,0.021978 0.03252,0.033586 0,0.011608 0.05229,0.1070454 0.116189,0.2120833 0.371602,0.6107903 0.615111,1.3441187 0.721443,2.172629 0.04718,0.367606 0.0465,1.1248493 -0.0014,1.5308846 -0.07362,0.6243652 -0.285436,1.3148016 -0.592017,1.9297267 -0.129266,0.2592767 -0.328768,0.602764 -0.356811,0.6143322 -0.0096,0.00397 -0.01752,0.016087 -0.01752,0.026915 0,0.019933 -0.143718,0.2169152 -0.172834,0.2368862 -0.0087,0.006 -0.01971,0.02167 -0.02448,0.0349 -0.02434,0.06753 -0.727037,0.810712 -0.766545,0.810712 -0.0083,0 -0.04446,0.02927 -0.08023,0.06505 -0.03578,0.03578 -0.07452,0.06505 -0.0861,0.06505 -0.01157,0 -0.04254,0.02268 -0.0688,0.0504 -0.02626,0.02772 -0.06483,0.05668 -0.08569,0.06437 -0.02087,0.0077 -0.03794,0.02337 -0.03794,0.03487 0,0.0115 -0.02104,0.02758 -0.04675,0.03574 -0.025712,0.0082 -0.06725,0.03565 -0.092306,0.06109 -0.04933,0.05008 -0.1013217,0.08568 -0.1861801,0.127463 -0.029813,0.01468 -0.067098,0.039 -0.082857,0.05405 -0.015758,0.01505 -0.04259,0.02736 -0.059626,0.02736 -0.017036,0 -0.030975,0.0074 -0.030975,0.01654 0,0.01931 -0.00312,0.02104 -0.3317794,0.18402 -0.1382762,0.06857 -0.2608797,0.124674 -0.272452,0.124674 -0.011575,0 -0.048664,0.01424 -0.082425,0.03165 -0.3185508,0.164222 -1.090312,0.347505 -1.6969286,0.402997 -0.3541889,0.0324 -1.0866375,0.01575 -1.4065612,-0.03198 C 5.0914323,12.221741 4.3830556,11.988703 3.9375892,11.718097 L 3.8121844,11.641917 2.7944873,11.912396 C 2.234755,12.06116 1.728006,12.196283 1.6683795,12.21267 c -0.059626,0.01639 -0.1718322,0.04631 -0.2493467,0.06649 -0.077515,0.02018 -0.1884015,0.05053 -0.2464161,0.06744 -0.058015,0.01691 -0.1281778,0.03074 -0.1559168,0.03074 -0.0277402,0 -0.0564668,0.0098 -0.0638377,0.02168 -0.007364,0.01193 -0.0372168,0.02168 -0.0663263,0.02168 -0.0419994,0 -0.0529266,-0.01119 -0.0529266,-0.05421 z M 7.2190237,11.444519 c 0.6672035,-0.07455 1.357383,-0.313266 1.9049642,-0.658868 0.1056327,-0.06667 0.1962933,-0.121217 0.2014675,-0.121217 0.00517,0 0.030136,-0.01931 0.055471,-0.04291 0.025334,-0.0236 0.085909,-0.06992 0.134608,-0.102928 0.048701,-0.03301 0.096348,-0.07224 0.1058852,-0.08718 0.00953,-0.01494 0.026969,-0.02717 0.038741,-0.02717 0.011772,0 0.081601,-0.05854 0.155178,-0.130094 0.073578,-0.07155 0.141053,-0.130094 0.1499472,-0.130094 0.023054,0 0.2350582,-0.2149617 0.2350582,-0.2383375 0,-0.010697 0.04879,-0.067471 0.108412,-0.1261639 0.05963,-0.058693 0.10841,-0.114218 0.10841,-0.1233876 0,-0.00917 0.02325,-0.038221 0.05167,-0.064559 0.02842,-0.026338 0.05806,-0.068023 0.06587,-0.092633 0.0078,-0.024611 0.02847,-0.050221 0.0459,-0.056911 0.01743,-0.00669 0.0317,-0.027105 0.0317,-0.045368 0,-0.018262 0.0091,-0.033204 0.02022,-0.033204 0.01112,0 0.02704,-0.021498 0.03538,-0.047774 0.0083,-0.026276 0.02851,-0.061122 0.04482,-0.077437 0.01631,-0.016315 0.02966,-0.042558 0.02966,-0.058318 0,-0.01576 0.01464,-0.034271 0.03252,-0.041135 0.01789,-0.00686 0.03252,-0.027422 0.03252,-0.045685 0,-0.018262 0.0087,-0.033204 0.01933,-0.033204 0.01063,0 0.02545,-0.024393 0.03294,-0.054206 0.0075,-0.029813 0.0224,-0.054206 0.03315,-0.054206 0.01075,0 0.02597,-0.029271 0.03383,-0.065047 0.0079,-0.035776 0.02249,-0.065047 0.03252,-0.065047 0.01004,0 0.02467,-0.029271 0.03252,-0.065047 0.0079,-0.035776 0.02283,-0.065047 0.03326,-0.065047 0.01044,0 0.02538,-0.03415 0.03321,-0.075888 0.0078,-0.041738 0.02213,-0.075888 0.03178,-0.075888 0.0097,0 0.02398,-0.029271 0.03183,-0.065047 0.0079,-0.035776 0.02216,-0.065047 0.03178,-0.065047 0.0096,0 0.02408,-0.043907 0.03213,-0.09757 0.0081,-0.053664 0.02254,-0.09757 0.03221,-0.09757 0.0097,0 0.02382,-0.039028 0.03145,-0.086729 0.0076,-0.047701 0.02255,-0.086729 0.03317,-0.086729 0.01061,0 0.02609,-0.058542 0.0344,-0.130094 0.0083,-0.071552 0.02312,-0.130094 0.03293,-0.130094 0.0098,0 0.02462,-0.063421 0.03292,-0.140935 0.0083,-0.077514 0.02275,-0.1409351 0.03211,-0.1409351 0.0094,0 0.02403,-0.112206 0.0326,-0.2493467 0.0086,-0.1371407 0.02417,-0.2493467 0.03466,-0.2493467 0.01049,0 0.01908,-0.1626263 0.01908,-0.3613918 0,-1.1928191 -0.389963,-2.2735433 -1.145681,-3.1750902 -0.187727,-0.224006 -0.5272725,-0.5552099 -0.6593254,-0.6431723 -0.04472,-0.029788 -0.081308,-0.062621 -0.081308,-0.072962 0,-0.010341 -0.013124,-0.018801 -0.029164,-0.018801 -0.01604,0 -0.046823,-0.019514 -0.068407,-0.043365 -0.021585,-0.02385 -0.051555,-0.043365 -0.066601,-0.043365 -0.015046,0 -0.030608,-0.00732 -0.034583,-0.016262 -0.010971,-0.024686 -0.1432965,-0.1138322 -0.1689668,-0.1138322 -0.012408,0 -0.022561,-0.00957 -0.022561,-0.021269 0,-0.011698 -0.024392,-0.027391 -0.054205,-0.034874 -0.029814,-0.00748 -0.054206,-0.022304 -0.054206,-0.032937 0,-0.010633 -0.014943,-0.019332 -0.033205,-0.019332 -0.018261,0 -0.038591,-0.014039 -0.045175,-0.031199 -0.00659,-0.017159 -0.040428,-0.037449 -0.075208,-0.045087 -0.034779,-0.00764 -0.063236,-0.022095 -0.063236,-0.032126 0,-0.010031 -0.029271,-0.024666 -0.065047,-0.032523 -0.035776,-0.00786 -0.065047,-0.023153 -0.065047,-0.03399 0,-0.010837 -0.039028,-0.025944 -0.086729,-0.033572 -0.047702,-0.00763 -0.08673,-0.021603 -0.08673,-0.031057 0,-0.00945 -0.029271,-0.023618 -0.065047,-0.031475 -0.035775,-0.00786 -0.065047,-0.022161 -0.065047,-0.031784 0,-0.00962 -0.043907,-0.024082 -0.09757,-0.032129 -0.053664,-0.00805 -0.097571,-0.023675 -0.097571,-0.034729 0,-0.011054 -0.039028,-0.026338 -0.086729,-0.033966 -0.047702,-0.00763 -0.08673,-0.021254 -0.08673,-0.030281 0,-0.00903 -0.053509,-0.023098 -0.1189105,-0.03127 -0.0654,-0.00817 -0.1239259,-0.022971 -0.1300545,-0.032888 -0.00613,-0.00992 -0.069704,-0.024828 -0.1412771,-0.033135 -0.071573,-0.00831 -0.1301332,-0.022743 -0.1301332,-0.032079 0,-0.00934 -0.092692,-0.023924 -0.2059817,-0.032418 -0.1132906,-0.00849 -0.2059817,-0.02429 -0.2059817,-0.035102 0,-0.01121 -0.2236223,-0.019659 -0.5203766,-0.019659 -0.2912588,0 -0.5203754,0.00853 -0.5203754,0.019381 0,0.01066 -0.087814,0.026331 -0.1951407,0.034825 -0.1073271,0.0085 -0.1951408,0.022906 -0.1951408,0.032024 0,0.00912 -0.068299,0.023309 -0.1517769,0.031535 -0.083477,0.00823 -0.1517758,0.022865 -0.1517758,0.032532 0,0.00967 -0.048786,0.024048 -0.1084119,0.031957 -0.059627,0.00791 -0.1084107,0.022695 -0.1084107,0.032855 0,0.010161 -0.043907,0.025058 -0.097571,0.033105 -0.053664,0.00805 -0.097571,0.022544 -0.097571,0.032214 0,0.00967 -0.039028,0.023824 -0.086729,0.031451 -0.047701,0.00763 -0.086729,0.022424 -0.086729,0.032882 0,0.010457 -0.034149,0.025419 -0.075888,0.03325 -0.04174,0.00783 -0.075889,0.022776 -0.075889,0.033214 0,0.010437 -0.029271,0.025406 -0.065047,0.033264 -0.035776,0.00786 -0.065047,0.022493 -0.065047,0.032523 0,0.010031 -0.029271,0.024666 -0.065047,0.032523 -0.035776,0.00786 -0.065047,0.022493 -0.065047,0.032523 0,0.010031 -0.029271,0.024666 -0.065047,0.032524 -0.035776,0.00786 -0.065047,0.022211 -0.065047,0.031896 0,0.00968 -0.024392,0.023731 -0.054206,0.031214 -0.029813,0.00748 -0.054206,0.022401 -0.054206,0.033151 0,0.010751 -0.028456,0.025797 -0.063236,0.033435 -0.034779,0.00764 -0.068623,0.027928 -0.075207,0.045087 -0.00659,0.017159 -0.026914,0.031199 -0.045176,0.031199 -0.018262,0 -0.033204,0.00976 -0.033204,0.021682 0,0.011926 -0.014731,0.021682 -0.032736,0.021682 -0.018005,0 -0.049444,0.019514 -0.069865,0.043365 -0.020422,0.023851 -0.04604,0.043365 -0.056929,0.043365 -0.010885,0 -0.042404,0.024393 -0.070034,0.054206 -0.027629,0.029813 -0.05999,0.054206 -0.071911,0.054206 -0.01192,0 -0.054839,0.03415 -0.095376,0.075888 -0.040535,0.041738 -0.080782,0.075888 -0.089438,0.075888 -0.01975,0 -0.4399868,0.4263738 -0.5164017,0.5239437 -0.031152,0.039776 -0.082749,0.1015914 -0.1146599,0.1373671 -0.031912,0.035776 -0.088145,0.1089537 -0.124964,0.1626174 -0.036819,0.053664 -0.074829,0.1008228 -0.084467,0.1047979 -0.00964,0.00397 -0.017525,0.021356 -0.017525,0.038625 0,0.017269 -0.014635,0.037013 -0.032523,0.043877 -0.017888,0.00686 -0.032524,0.022162 -0.032524,0.033996 0,0.019879 -0.1478329,0.2745448 -0.1736165,0.2990802 -0.042662,0.040599 -0.3467589,0.7525043 -0.3467589,0.811781 0,0.018606 -0.00884,0.03383 -0.019648,0.03383 -0.010811,0 -0.026356,0.048774 -0.034555,0.1083873 -0.0082,0.059613 -0.02279,0.1132593 -0.032424,0.119214 -0.00963,0.00595 -0.024315,0.069386 -0.032621,0.1409593 -0.00831,0.071573 -0.022867,0.1301328 -0.032355,0.1301328 -0.00949,0 -0.024329,0.090253 -0.032981,0.2005614 -0.00866,0.1103089 -0.025505,0.2067466 -0.037453,0.2143059 -0.029563,0.018705 -0.030833,1.1454032 -0.00132,1.1646323 0.011944,0.00778 0.028467,0.09676 0.036707,0.1977268 0.00824,0.1009664 0.023346,0.1887798 0.033566,0.1951408 0.01022,0.00636 0.025575,0.067668 0.034122,0.1362385 0.00855,0.06857 0.02305,0.1246734 0.032226,0.1246734 0.00917,0 0.023391,0.053664 0.031586,0.1192528 0.0082,0.065589 0.023357,0.1192527 0.033693,0.1192527 0.010343,0 0.025378,0.043907 0.033425,0.09757 0.00804,0.053664 0.023282,0.097571 0.033853,0.097571 0.010565,0 0.01922,0.019514 0.01922,0.043365 0,0.02385 0.00975,0.043364 0.021682,0.043364 0.01192,0 0.021742,0.012197 0.021816,0.027103 6.52e-5,0.014907 0.013789,0.053278 0.03048,0.085269 0.01669,0.031991 0.03692,0.088094 0.044953,0.1246732 0.00803,0.036579 0.022815,0.066508 0.032844,0.066508 0.010036,0 0.024666,0.029271 0.032524,0.065047 0.00786,0.035776 0.023268,0.065047 0.034245,0.065047 0.010984,0 0.02002,0.012197 0.020093,0.027103 1.232e-4,0.030354 0.00783,0.045495 0.1818371,0.3581956 L 2.6572195,9.4077339 2.4283911,10.222427 c -0.1258555,0.448081 -0.2288285,0.824447 -0.2288285,0.836367 0,0.02499 0.2212161,7.02e-4 0.2385058,-0.02618 0.00596,-0.0093 0.066944,-0.02385 0.1355143,-0.0324 0.06857,-0.0085 0.1246733,-0.02305 0.1246733,-0.03222 0,-0.0092 0.053664,-0.02339 0.1192529,-0.03159 0.065589,-0.0082 0.1192529,-0.023 0.1192529,-0.03289 0,-0.0099 0.058542,-0.02479 0.1300939,-0.03309 0.071552,-0.0083 0.1300938,-0.02294 0.1300938,-0.03252 0,-0.0096 0.058542,-0.02422 0.1300938,-0.03252 0.071552,-0.0083 0.1300939,-0.02277 0.1300939,-0.03215 0,-0.0094 0.056104,-0.02405 0.1246733,-0.0326 0.06857,-0.0085 0.1307687,-0.02534 0.1382172,-0.03732 0.00745,-0.01198 0.081258,-0.02319 0.1640192,-0.0249 0.1172667,-0.0024 0.1588832,0.0053 0.1885665,0.03483 0.020951,0.02087 0.052029,0.03794 0.069066,0.03794 0.017036,0 0.030974,0.009 0.030974,0.01996 0,0.01098 0.028457,0.02621 0.063237,0.03385 0.034779,0.0076 0.068623,0.02793 0.075207,0.04509 0.00659,0.01716 0.026914,0.0312 0.045176,0.0312 0.018262,0 0.033204,0.009 0.033204,0.01996 0,0.01098 0.029271,0.02639 0.065047,0.03425 0.035776,0.0079 0.065047,0.02249 0.065047,0.03252 0,0.01003 0.029271,0.02466 0.065047,0.03252 0.035776,0.0079 0.065047,0.02202 0.065047,0.03148 0,0.0095 0.039028,0.02343 0.086729,0.03106 0.047702,0.0076 0.08673,0.02242 0.08673,0.03288 0,0.01046 0.034149,0.02542 0.075888,0.03325 0.041738,0.0078 0.075888,0.02244 0.075888,0.03247 0,0.01003 0.043907,0.02482 0.097571,0.03287 0.053663,0.008 0.09757,0.02267 0.09757,0.03249 0,0.0098 0.053664,0.02456 0.1192529,0.03275 0.06559,0.0082 0.1192529,0.02318 0.1192529,0.0333 0,0.01012 0.063422,0.02519 0.1409348,0.03349 0.077515,0.0083 0.140936,0.02193 0.140936,0.03029 0,0.01494 0.2763567,0.05696 0.5745813,0.08736 0.2370971,0.02417 0.7390771,0.02434 0.9540219,3.2e-4 z"
       id="path863"
       inkscape:connector-curvature="0" />
    <path
       style="opacity:1;fill:#1bd741;fill-opacity:1;stroke:#1bd741;stroke-width:0.99826843;stroke-miterlimit:4;stroke-dasharray:none;stroke-opacity:1"
       d="m 22.59695,42.811374 c -2.217996,-0.359365 -4.130823,-0.99236 -5.823233,-1.927031 -1.896037,-1.047127 -1.572857,-1.013525 -4.028491,-0.418866 -1.215878,0.294437 -2.322992,0.580331 -2.460253,0.635323 -0.137262,0.05499 -0.3574691,0.121584 -0.4893488,0.147988 -0.1318798,0.0264 -0.4126428,0.09139 -0.6239178,0.144418 -0.211275,0.05303 -0.3841365,0.03133 -0.3841365,-0.04821 0,-0.07954 0.3362436,-1.335043 0.7472081,-2.790002 0.4109643,-1.454962 0.74788,-2.767954 0.748701,-2.917763 8.16e-4,-0.14981 -0.3308556,-0.898511 -0.7370602,-1.66378 C 7.8375332,30.753992 7.1307229,28.152318 7.126396,25.065674 7.1220553,21.969272 7.9108236,18.899905 9.4062942,16.193811 10.161881,14.826557 10.977338,13.784896 12.556772,12.169404 18.442653,6.1491522 28.097538,5.2366824 35.202268,10.02921 c 2.409441,1.625299 4.724372,4.234728 5.985473,6.746924 2.456936,4.894382 2.55197,10.870227 0.250485,15.750764 -1.261505,2.675154 -2.797186,4.633274 -5.080134,6.47759 -1.871107,1.511601 -4.573378,2.918703 -6.690074,3.48359 -1.503662,0.401286 -5.470357,0.582646 -7.071068,0.323296 z m 10.592122,-7.847057 c 1.538508,-0.723184 3.195349,-3.174512 2.992116,-4.426891 -0.05351,-0.329746 -0.268071,-0.768908 -0.476804,-0.975915 -0.562814,-0.558166 -3.740873,-1.925822 -4.677873,-2.01309 -0.783218,-0.07295 -0.82424,-0.05364 -1.556229,0.732384 -0.413494,0.444018 -0.857719,1.012115 -0.987169,1.262436 -0.129795,0.250992 -0.436363,0.505578 -0.683501,0.567605 -1.016209,0.255053 -4.64564,-2.244678 -6.653871,-4.582782 -1.798563,-2.093997 -1.853961,-2.551965 -0.459393,-3.797744 l 0.786592,-0.702669 -0.0722,-0.961112 C 21.35498,19.457354 21.113644,18.618052 20.741653,17.774403 20.418864,17.042339 20.01429,16.114619 19.8426,15.712802 c -0.355374,-0.831708 -0.969963,-1.182771 -2.070617,-1.182771 -1.404923,0 -2.540493,0.873391 -3.43548,2.642302 -1.495215,2.955239 0.248317,7.620877 4.425456,11.842391 4.884507,4.936396 11.115772,7.506107 14.42711,5.949593 z"
       id="path866"
       inkscape:connector-curvature="0"
       transform="scale(0.26458333)" />
    <rect
       style="opacity:0.5;fill:#ff0000;fill-opacity:1;stroke:none;stroke-width:1.32410431;stroke-miterlimit:4;stroke-dasharray:none;stroke-opacity:1"
       id="rect870"
       width="10.138108"
       height="6.8288479"
       x="-13.702796"
       y="15.009472"
       transform="matrix(-0.62793804,0.77826334,0.33633342,0.94174297,0,0)"
       ry="0.95645857" />
    <text
       xml:space="preserve"
       style="font-style:normal;font-variant:normal;font-weight:normal;font-stretch:normal;font-size:7.01045465px;line-height:1.25;font-family:'Sitka Small';-inkscape-font-specification:'Sitka Small';letter-spacing:0px;word-spacing:0px;fill:#ffffff;fill-opacity:1;stroke:none;stroke-width:0.17526138"
       x="11.265316"
       y="10.32229"
       id="text956"
       transform="matrix(1.0388824,0.19400194,-0.34017919,0.89904745,0,0)"><tspan
         sodipodi:role="line"
         id="tspan954"
         x="11.265316"
         y="10.32229"
         style="font-style:normal;font-variant:normal;font-weight:normal;font-stretch:normal;font-family:'Sitka Small';-inkscape-font-specification:'Sitka Small';fill:#ffffff;stroke-width:0.17526138">3</tspan></text>
  </g>
  <g
     inkscape:groupmode="layer"
     id="layer4"
     inkscape:label="Capa 4"
     style="display:none"
     sodipodi:insensitive="true">
    <g
       id="g952"
       transform="matrix(0.08333333,0,0,0.08333333,-11.445423,20.777789)">
      <g
         transform="matrix(1.0017346,0,0,0.99730213,-0.23823371,-0.24438241)"
         id="g947">
        <rect
           style="opacity:1;fill:#1a73ec;fill-opacity:1;stroke:none;stroke-width:1.56668735;stroke-miterlimit:4;stroke-dasharray:none;stroke-opacity:1"
           id="rect943"
           width="158.47511"
           height="159.17944"
           x="137.34508"
           y="-249.76292" />
        <path
           style="opacity:1;fill:#ffffff;fill-opacity:1;stroke:none;stroke-width:1.49411762;stroke-miterlimit:4;stroke-dasharray:none;stroke-opacity:1"
           d="m 224.90168,-133.38055 v -28.26373 h -7.96863 -7.96862 l -5e-5,-12.51323 -4e-5,-12.51324 8.03093,0.087 8.03092,0.087 0.008,-11.66645 0.008,-11.66645 0.68127,-2.73922 c 0.80709,-3.24507 2.34026,-7.0206 3.54603,-8.73224 0.47599,-0.6757 1.13379,-1.62924 1.46178,-2.11898 0.91904,-1.37229 5.02268,-5.09682 7.27154,-6.59976 2.58151,-1.72527 5.77804,-3.2218 8.24384,-3.85955 2.8994,-0.7499 6.35616,-0.97751 17.81356,-1.17292 l 10.39681,-0.17733 -2.4e-4,12.47669 -2.5e-4,12.4767 -1.90522,0.16105 c -1.04787,0.0886 -5.19685,0.16105 -9.21995,0.16105 -8.33744,0 -9.29474,0.16581 -11.09255,1.92133 -1.83924,1.79597 -2.05344,2.5813 -2.12481,7.79043 -0.0347,2.53378 -0.0907,6.59596 -0.12451,9.02709 l -0.0614,4.42022 12.26422,-1.3e-4 12.26421,-1.2e-4 v 12.57549 12.57549 h -12.2019 -12.20196 v 28.26373 28.26372 h -12.57549 -12.57549 z"
           id="path941"
           inkscape:connector-curvature="0" />
      </g>
    </g>
  </g>
</svg>
