<?xml version="1.0" encoding="UTF-8" standalone="no"?>
<!-- Created with Inkscape (http://www.inkscape.org/) -->

<svg
   xmlns:dc="http://purl.org/dc/elements/1.1/"
   xmlns:cc="http://creativecommons.org/ns#"
   xmlns:rdf="http://www.w3.org/1999/02/22-rdf-syntax-ns#"
   xmlns:svg="http://www.w3.org/2000/svg"
   xmlns="http://www.w3.org/2000/svg"
   xmlns:sodipodi="http://sodipodi.sourceforge.net/DTD/sodipodi-0.dtd"
   xmlns:inkscape="http://www.inkscape.org/namespaces/inkscape"
   width="50"
   height="50"
   viewBox="0 0 13.229166 13.229167"
   version="1.1"
   id="svg8"
   inkscape:version="0.92.4 (5da689c313, 2019-01-14)"
   sodipodi:docname="Whatsapp2.svg">
  <defs
     id="defs2" />
  <sodipodi:namedview
     id="base"
     pagecolor="#ffffff"
     bordercolor="#666666"
     borderopacity="1.0"
     inkscape:pageopacity="0.0"
     inkscape:pageshadow="2"
     inkscape:zoom="12.020815"
     inkscape:cx="16.310086"
     inkscape:cy="7.3716537"
     inkscape:document-units="px"
     inkscape:current-layer="layer3"
     showgrid="false"
     units="px"
     inkscape:window-width="1920"
     inkscape:window-height="1017"
     inkscape:window-x="-8"
     inkscape:window-y="-8"
     inkscape:window-maximized="1" />
  <metadata
     id="metadata5">
    <rdf:RDF>
      <cc:Work
         rdf:about="">
        <dc:format>image/svg+xml</dc:format>
        <dc:type
           rdf:resource="http://purl.org/dc/dcmitype/StillImage" />
        <dc:title />
      </cc:Work>
    </rdf:RDF>
  </metadata>
  <g
     inkscape:label="Capa 1"
     inkscape:groupmode="layer"
     id="layer1"
     transform="translate(0,-283.77081)"
     style="display:none"
     sodipodi:insensitive="true">
    <g
       id="g915"
       transform="translate(15.672671,-4.933699)">
      <g
         transform="matrix(0.11259704,0,0,0.11259704,10.936594,296.24573)"
         id="g928">
        <g
           id="g914">
          <path
             sodipodi:nodetypes="ccccc"
             inkscape:connector-curvature="0"
             id="path878"
             d="m -230.14015,34.887431 v -84.520057 c -0.18011,-5.347511 1.66304,-10.363008 8.62717,-10.740173 l 86.98522,-0.352167 z"
             style="fill:#1c9958;fill-opacity:1;stroke:none;stroke-width:0.26458332px;stroke-linecap:butt;stroke-linejoin:miter;stroke-opacity:1" />
          <path
             sodipodi:nodetypes="ccccc"
             inkscape:connector-curvature="0"
             id="path899"
             d="m -230.13862,34.893871 69.60097,-69.600978 10.33432,8.840195 -70.22353,70.099019 c -6.26854,0.486904 -9.97657,-4.416911 -9.71176,-9.338236 z"
             style="fill:#fed83c;fill-opacity:1;stroke:none;stroke-width:0.26458332px;stroke-linecap:butt;stroke-linejoin:miter;stroke-opacity:1" />
        </g>
        <g
           id="g919"
           transform="translate(-15.700963,-54.875326)">
          <path
             sodipodi:nodetypes="ccccc"
             inkscape:connector-curvature="0"
             id="path878-0"
             d="M -109.31351,3.5285344 V 88.04859 c 0.17941,5.347511 -1.65653,10.363007 -8.59341,10.740172 l -86.64487,0.352167 z"
             style="fill:#ccccca;fill-opacity:1;stroke:none;stroke-width:0.26406518px;stroke-linecap:butt;stroke-linejoin:miter;stroke-opacity:1" />
          <path
             sodipodi:nodetypes="ccccc"
             inkscape:connector-curvature="0"
             id="path897"
             d="m -161.96429,56.471622 9.63302,-9.633016 43.02845,42.654917 c 0.0769,5.79401 -4.18019,10.20417 -9.67575,9.59029 z"
             style="fill:#efefef;fill-opacity:1;stroke:none;stroke-width:0.26458332px;stroke-linecap:butt;stroke-linejoin:miter;stroke-opacity:1" />
          <path
             sodipodi:nodetypes="ccccc"
             inkscape:connector-curvature="0"
             id="path901"
             d="m -118.93304,99.140929 -85.61875,-0.11226 42.63303,-42.499936 z"
             style="fill:#3f7bf2;fill-opacity:1;stroke:none;stroke-width:0.26458332px;stroke-linecap:butt;stroke-linejoin:miter;stroke-opacity:1" />
        </g>
      </g>
      <path
         sodipodi:nodetypes="ccccccccccc"
         inkscape:connector-curvature="0"
         id="path946"
         d="m -11.414606,291.38616 0.530711,-0.5237 c -1.242274,-1.05905 -3.065075,-0.21304 -3.013624,1.46135 0.08452,0.53154 0.427751,1.65119 1.781553,1.65466 0.519301,0.0677 1.617631,-0.21729 1.724902,-1.44733 -0.0041,-0.21644 0.0066,-0.4757 0.0025,-0.64932 l -1.698881,-10e-4 -0.0017,0.68355 0.952096,-0.008 c -0.120754,0.74 -1.354613,1.09296 -1.923161,0.0991 -0.51354,-1.23184 0.956443,-1.98235 1.645598,-1.2689 z"
         style="fill:#ffffff;stroke:none;stroke-width:0.0297913px;stroke-linecap:butt;stroke-linejoin:miter;stroke-opacity:1" />
    </g>
  </g>
  <g
     inkscape:groupmode="layer"
     id="layer2"
     inkscape:label="Capa 2"
     sodipodi:insensitive="true"
     style="display:none">
    <g
       id="g869"
       transform="matrix(0.18549138,0,0,0.14205918,3.3292491,10.455038)"
       style="fill:#ff0000;fill-opacity:1">
      <g
         id="g864"
         style="fill:#ff0000;fill-opacity:1">
        <circle
           style="opacity:1;fill:#ff0000;fill-opacity:1;stroke:none;stroke-width:1.58749998;stroke-miterlimit:4;stroke-dasharray:none;stroke-opacity:1"
           id="path847"
           cx="17.711519"
           cy="-43.080395"
           r="29.384314" />
      </g>
      <path
         sodipodi:nodetypes="cccc"
         inkscape:connector-curvature="0"
         id="path853"
         d="M -4.7313725,-24.621813 39.718625,-23.8125 C 28.770291,-12.22296 21.153762,3.0542148 17.742647,18.396323 13.684139,2.6068174 6.8666286,-12.393356 -4.7313725,-24.621813 Z"
         style="fill:#ff0000;fill-opacity:1;stroke:none;stroke-width:0.26458332px;stroke-linecap:butt;stroke-linejoin:miter;stroke-opacity:1" />
    </g>
    <ellipse
       style="opacity:1;fill:#ffffff;fill-opacity:1;stroke:none;stroke-width:0.24801995;stroke-miterlimit:4;stroke-dasharray:none;stroke-opacity:1"
       id="path845"
       cx="6.5948701"
       cy="4.3670673"
       rx="1.7970464"
       ry="1.4857719" />
    <rect
       style="opacity:0.3;fill:#ffffff;fill-opacity:1;stroke:none;stroke-width:1.68724608;stroke-miterlimit:4;stroke-dasharray:none;stroke-opacity:1"
       id="rect860"
       width="6.614583"
       height="13.229166"
       x="6.6145835"
       y="4.691162e-07" />
  </g>
  <g
     inkscape:groupmode="layer"
     id="layer3"
     inkscape:label="Capa 3"
     style="display:inline">
    <rect
       style="opacity:1;fill:#1bd741;fill-opacity:1;stroke:none;stroke-width:0.31181684;stroke-miterlimit:4;stroke-dasharray:none;stroke-opacity:1"
       id="rect869"
       width="13.229166"
       height="13.229166"
       x="2.345581e-07"
       y="2.3455809e-07" />
    <g
       id="g873"
       transform="matrix(0.12313662,0,0,0.12313662,32.66596,5.8517682)"
       style="fill:#ffffff">
      <path
         sodipodi:nodetypes="ccccccccccsc"
         inkscape:connector-curvature="0"
         id="path861"
         d="m -221.34301,-10.49804 c 0.97989,2.5339478 4.38409,7.3897391 0.65902,9.82116841 -2.0466,1.50285789 -3.45208,3.22463549 -0.74706,6.34999989 4.30009,5.4589407 8.79913,8.9425747 12.95248,10.9864267 1.73264,0.888004 3.60569,2.356856 5.22596,-1.025642 1.93285,-1.919613 2.66331,-5.614195 7.84411,-2.739216 3.92322,2.097786 10.59734,2.476258 7.09706,9.213726 -5.18146,8.749862 -10.8982,6.615785 -16.5598,5.602941 -8.78424,-2.672188 -25.60046,-13.604687 -30.03579,-29.428335 -1.00574,-6.6342721 0.26096,-7.4167294 1.77832,-10.266337 2.22347,-3.182585 3.68238,-3.830061 5.34538,-3.843989 3.73559,-0.03129 4.67546,-0.347622 6.44032,5.329257 z"
         style="fill:#ffffff;stroke:none;stroke-width:0.26458332px;stroke-linecap:butt;stroke-linejoin:miter;stroke-opacity:1" />
      <path
         inkscape:connector-curvature="0"
         id="path863"
         d="m -258.51271,52.906495 c 0,-0.242115 0.0765,-0.440209 0.17002,-0.440209 0.0935,0 0.22257,-0.396189 0.28681,-0.880416 0.0642,-0.48423 0.18012,-0.88042 0.25752,-0.88042 0.0774,0 0.19517,-0.435806 0.26172,-0.968457 0.0666,-0.532654 0.18839,-0.96846 0.27074,-0.96846 0.0823,0 0.20228,-0.396187 0.26652,-0.880417 0.0642,-0.484229 0.17669,-0.880416 0.2499,-0.880416 0.0732,0 0.18756,-0.435809 0.25411,-0.96846 0.0666,-0.532654 0.18433,-0.96846 0.26173,-0.96846 0.0774,0 0.19328,-0.396187 0.25752,-0.880417 0.0642,-0.48423 0.18417,-0.880417 0.26652,-0.880417 0.0823,0 0.20418,-0.435805 0.27073,-0.968459 0.0666,-0.532651 0.18433,-0.96846 0.26173,-0.96846 0.0774,0 0.19328,-0.396187 0.25752,-0.880417 0.0642,-0.48423 0.17626,-0.880417 0.24894,-0.880417 0.0727,0 0.21955,-0.415996 0.32638,-0.924438 0.20045,-0.954066 0.51928,-2.14834 1.02241,-3.829815 0.36243,-1.211251 0.69155,-2.401464 1.0712,-3.873836 l 0.29513,-1.144542 -0.79658,-1.584751 c -2.60195,-5.176447 -4.40488,-11.094375 -5.1499,-16.904011 -0.35739,-2.7869453 -0.35353,-8.3212323 0.008,-11.09451138 1.77561,-13.63048262 9.63279,-25.96113162 21.59994,-33.89784562 2.13321,-1.414766 7.14816,-4.046884 7.71048,-4.046884 0.1579,0 0.36236,-0.07064 0.45436,-0.156964 0.092,-0.08633 0.80118,-0.367392 1.57595,-0.624583 8.75905,-2.907633 17.95235,-3.272287 26.70441,-1.05923 7.28464,1.842008 15.18796,6.066874 20.38801,10.898793 2.17137,2.017644 4.69766,4.739279 5.01117,5.39865 0.0874,0.183889 0.21964,0.334344 0.29378,0.334344 0.0741,0 0.31705,0.29714 0.53978,0.660313 0.41726,0.680368 0.44745,0.722216 1.03569,1.43561 0.1919,0.232722 0.34891,0.521384 0.34891,0.641474 0,0.120088 0.11885,0.263952 0.26412,0.319698 0.14527,0.05575 0.26413,0.178484 0.26413,0.272752 0,0.09427 0.42461,0.869322 0.94358,1.722341 3.0178,4.960265 4.99535,10.9156699 5.85888,17.64405273 0.38314,2.98535047 0.37761,9.13496997 -0.0112,12.43240727 -0.59786,5.070508 -2.31804,10.677584 -4.8078,15.671428 -1.04978,2.105602 -2.66995,4.895083 -2.89769,4.989029 -0.0783,0.03228 -0.14229,0.130643 -0.14229,0.218582 0,0.16188 -1.16715,1.76158 -1.4036,1.923767 -0.0706,0.04842 -0.16004,0.175959 -0.19877,0.283409 -0.19769,0.548417 -5.90431,6.583846 -6.22516,6.583846 -0.0678,0 -0.36103,0.237713 -0.65157,0.528252 -0.29054,0.290536 -0.60518,0.528248 -0.6992,0.528248 -0.094,0 -0.34544,0.18419 -0.55872,0.409308 -0.21328,0.225121 -0.52645,0.460346 -0.69593,0.522727 -0.16948,0.06238 -0.30814,0.189798 -0.30814,0.283159 0,0.09336 -0.17085,0.223967 -0.37966,0.29024 -0.20881,0.06628 -0.54614,0.289521 -0.74962,0.496097 -0.40061,0.406709 -0.82284,0.695782 -1.51198,1.035134 -0.24211,0.119224 -0.54491,0.316744 -0.67289,0.438931 -0.12797,0.122187 -0.34588,0.222157 -0.48423,0.222157 -0.13835,0 -0.25155,0.06045 -0.25155,0.134329 0,0.156811 -0.0253,0.170844 -2.6944,1.494444 -1.12295,0.556863 -2.11862,1.012481 -2.2126,1.012481 -0.094,0 -0.3952,0.115644 -0.66938,0.256989 -2.58697,1.333662 -8.85449,2.822115 -13.78086,3.272769 -2.87639,0.263128 -8.82465,0.127905 -11.42277,-0.259683 -5.60358,-0.835935 -11.35635,-2.728444 -14.97401,-4.926058 l -1.01842,-0.618656 -8.26478,2.196576 c -4.54562,1.208116 -8.66096,2.30546 -9.14519,2.43854 -0.48423,0.13308 -1.39546,0.376074 -2.02496,0.539986 -0.6295,0.163912 -1.53002,0.410358 -2.00116,0.547655 -0.47114,0.137298 -1.04094,0.249632 -1.26621,0.249632 -0.22528,0 -0.45857,0.07924 -0.51843,0.176086 -0.0598,0.09685 -0.30224,0.176082 -0.53864,0.176082 -0.34108,0 -0.42982,-0.09088 -0.42982,-0.440208 z m 51.85657,-7.487436 c 5.4184,-0.605459 11.02339,-2.544053 15.47033,-5.350703 0.85785,-0.541427 1.59411,-0.984414 1.63613,-0.984414 0.042,0 0.24474,-0.156826 0.45048,-0.348504 0.20574,-0.191677 0.69767,-0.567825 1.09316,-0.835885 0.3955,-0.26806 0.78245,-0.586658 0.8599,-0.707996 0.0774,-0.121337 0.21902,-0.220614 0.31462,-0.220614 0.0956,0 0.66269,-0.475428 1.26021,-1.056503 0.59753,-0.581075 1.1455,-1.0565 1.21773,-1.0565 0.18722,0 1.90892,-1.745718 1.90892,-1.935554 0,-0.08687 0.39619,-0.547936 0.88042,-1.024585 0.48423,-0.476653 0.88041,-0.927571 0.88041,-1.002038 0,-0.07447 0.18883,-0.310399 0.41962,-0.524288 0.23079,-0.213889 0.47152,-0.552416 0.53495,-0.752279 0.0634,-0.199866 0.23118,-0.407845 0.37276,-0.462174 0.14158,-0.05433 0.25742,-0.220126 0.25742,-0.368435 0,-0.148307 0.0739,-0.26965 0.16422,-0.26965 0.0903,0 0.21963,-0.174588 0.28736,-0.387975 0.0677,-0.213389 0.23154,-0.496379 0.36403,-0.628871 0.13249,-0.132492 0.2409,-0.345613 0.2409,-0.473603 0,-0.127989 0.11885,-0.278317 0.26412,-0.334063 0.14527,-0.05574 0.26412,-0.222697 0.26412,-0.371006 0,-0.148308 0.0707,-0.269651 0.157,-0.269651 0.0863,0 0.20671,-0.198094 0.26748,-0.440209 0.0608,-0.242114 0.18192,-0.440208 0.26923,-0.440208 0.0873,0 0.21094,-0.237713 0.27475,-0.528251 0.0638,-0.290537 0.18267,-0.52825 0.26413,-0.52825 0.0815,0 0.20031,-0.237713 0.26413,-0.52825 0.0638,-0.290538 0.18537,-0.528251 0.27013,-0.528251 0.0848,0 0.20614,-0.277331 0.26973,-0.616292 0.0636,-0.338961 0.17974,-0.616292 0.25812,-0.616292 0.0784,0 0.1947,-0.237713 0.25852,-0.52825 0.0638,-0.290538 0.17996,-0.528251 0.25812,-0.528251 0.0781,0 0.19557,-0.356569 0.26092,-0.792375 0.0654,-0.435807 0.18308,-0.792376 0.26161,-0.792376 0.0785,0 0.19348,-0.31695 0.25542,-0.704333 0.0619,-0.387384 0.18315,-0.704334 0.26934,-0.704334 0.0862,0 0.21189,-0.475426 0.27934,-1.056501 0.0674,-0.581076 0.18777,-1.056501 0.26739,-1.056501 0.0796,0 0.19994,-0.515044 0.26736,-1.144542 0.0674,-0.629499 0.18475,-1.144543 0.26077,-1.144543 0.076,0 0.19513,-0.911231 0.26472,-2.024959 0.0696,-1.113728 0.19626,-2.0249599 0.2815,-2.0249599 0.0852,0 0.15497,-1.3206981 0.15497,-2.934885 0,-9.6869564 -3.16691,-18.4635841 -9.30415,-25.7851011 -1.52492,-1.819167 -4.28239,-4.508894 -5.3548,-5.223242 -0.36317,-0.241914 -0.66031,-0.508551 -0.66031,-0.592528 0,-0.08398 -0.10658,-0.152683 -0.23684,-0.152683 -0.13026,0 -0.38025,-0.158477 -0.55554,-0.352168 -0.17529,-0.193691 -0.41868,-0.352166 -0.54087,-0.352166 -0.12219,0 -0.24857,-0.05943 -0.28085,-0.132064 -0.0891,-0.200477 -1.16372,-0.924438 -1.37219,-0.924438 -0.10077,0 -0.18322,-0.07773 -0.18322,-0.172728 0,-0.095 -0.19809,-0.222446 -0.4402,-0.283213 -0.24212,-0.06077 -0.44021,-0.181133 -0.44021,-0.26748 0,-0.08635 -0.12135,-0.156996 -0.26966,-0.156996 -0.1483,0 -0.3134,-0.114014 -0.36687,-0.253365 -0.0535,-0.139351 -0.32832,-0.304123 -0.61077,-0.366157 -0.28244,-0.06204 -0.51354,-0.179438 -0.51354,-0.260895 0,-0.08146 -0.23771,-0.200313 -0.52825,-0.264126 -0.29054,-0.06381 -0.52825,-0.188028 -0.52825,-0.276034 0,-0.08801 -0.31695,-0.210693 -0.70433,-0.27264 -0.38739,-0.06194 -0.70434,-0.175442 -0.70434,-0.252214 0,-0.07677 -0.23771,-0.191799 -0.52825,-0.255611 -0.29053,-0.06381 -0.52825,-0.17997 -0.52825,-0.258123 0,-0.07815 -0.35657,-0.195572 -0.79237,-0.260924 -0.43581,-0.06535 -0.79238,-0.19227 -0.79238,-0.282038 0,-0.08977 -0.31695,-0.213894 -0.70433,-0.275841 -0.38739,-0.06194 -0.70434,-0.172606 -0.70434,-0.245917 0,-0.07331 -0.43455,-0.187584 -0.96568,-0.253944 -0.53112,-0.06636 -1.00641,-0.18655 -1.05618,-0.267087 -0.0498,-0.08054 -0.56607,-0.201631 -1.14732,-0.269091 -0.58125,-0.06746 -1.05682,-0.184693 -1.05682,-0.260512 0,-0.07582 -0.75276,-0.194291 -1.67279,-0.263268 -0.92004,-0.06898 -1.67279,-0.197258 -1.67279,-0.285065 0,-0.09104 -1.81605,-0.159652 -4.22601,-0.159652 -2.36533,0 -4.226,0.0693 -4.226,0.15739 0,0.08657 -0.71314,0.213834 -1.58475,0.282818 -0.87161,0.06899 -1.58475,0.186018 -1.58475,0.260067 0,0.07405 -0.55466,0.189294 -1.23259,0.256096 -0.67792,0.0668 -1.23258,0.185687 -1.23258,0.264191 0,0.0785 -0.39619,0.195292 -0.88042,0.259528 -0.48423,0.06424 -0.88041,0.184303 -0.88041,0.266816 0,0.08252 -0.35657,0.203496 -0.79238,0.268851 -0.43581,0.06535 -0.79238,0.183079 -0.79238,0.261612 0,0.07854 -0.31695,0.193474 -0.70433,0.255418 -0.38738,0.06194 -0.70433,0.18211 -0.70433,0.267034 0,0.08492 -0.27733,0.206433 -0.61629,0.270023 -0.33897,0.06359 -0.6163,0.184967 -0.6163,0.269732 0,0.08476 -0.23771,0.206322 -0.52825,0.270137 -0.29054,0.06381 -0.52825,0.182668 -0.52825,0.264123 0,0.08146 -0.23771,0.200313 -0.52825,0.264125 -0.29054,0.06381 -0.52825,0.182671 -0.52825,0.264126 0,0.08146 -0.23771,0.200313 -0.52825,0.264126 -0.29054,0.06381 -0.52825,0.180374 -0.52825,0.259027 0,0.07865 -0.19809,0.192722 -0.44021,0.253489 -0.24211,0.06077 -0.44021,0.181917 -0.44021,0.269224 0,0.08731 -0.23109,0.209495 -0.51354,0.271529 -0.28244,0.06204 -0.55729,0.226806 -0.61076,0.366157 -0.0535,0.13935 -0.21857,0.253367 -0.36688,0.253367 -0.14831,0 -0.26965,0.07924 -0.26965,0.176083 0,0.09685 -0.11963,0.176083 -0.26585,0.176083 -0.14622,0 -0.40154,0.158475 -0.56738,0.352166 -0.16585,0.193693 -0.37389,0.352168 -0.46232,0.352168 -0.0884,0 -0.34437,0.198094 -0.56875,0.440209 -0.22438,0.242114 -0.48718,0.440208 -0.58399,0.440208 -0.0968,0 -0.44535,0.277332 -0.77455,0.616292 -0.32919,0.338961 -0.65604,0.616292 -0.72633,0.616292 -0.16039,0 -3.57316,3.462607 -4.19373,4.254978 -0.25299,0.323025 -0.67201,0.82503 -0.93116,1.115567 -0.25916,0.290538 -0.71583,0.88482 -1.01484,1.320626 -0.29901,0.435807 -0.60769,0.818788 -0.68596,0.85107 -0.0783,0.03228 -0.14232,0.173435 -0.14232,0.313673 0,0.140238 -0.11885,0.300587 -0.26412,0.356331 -0.14527,0.05575 -0.26413,0.179982 -0.26413,0.27608 0,0.161442 -1.20056,2.229595 -1.40995,2.428849 -0.34646,0.329704 -2.81605,6.1111331 -2.81605,6.5925224 0,0.1511025 -0.0718,0.2747325 -0.15956,0.2747325 -0.0878,0 -0.21404,0.3960997 -0.28062,0.88022 -0.0666,0.4841222 -0.18508,0.9197859 -0.26332,0.9681438 -0.0782,0.048358 -0.19746,0.56349 -0.26492,1.1447396 -0.0675,0.581248 -0.1857,1.0568159 -0.26276,1.0568159 -0.0771,0 -0.19758,0.7329473 -0.26784,1.62877192 -0.0703,0.89582455 -0.20713,1.67900148 -0.30416,1.74039118 -0.24008,0.1519072 -0.2504,9.3018887 -0.0107,9.4580497 0.097,0.06321 0.23118,0.785793 0.2981,1.605751 0.0669,0.819955 0.18959,1.533093 0.27259,1.584751 0.083,0.05166 0.2077,0.549537 0.27711,1.106401 0.0694,0.556864 0.18719,1.01248 0.26171,1.01248 0.0745,0 0.18996,0.435806 0.25651,0.968459 0.0666,0.532652 0.18968,0.968459 0.27362,0.968459 0.084,0 0.2061,0.356568 0.27145,0.792375 0.0653,0.435807 0.18907,0.792376 0.27492,0.792376 0.0858,0 0.15609,0.158475 0.15609,0.352167 0,0.193691 0.0792,0.352166 0.17608,0.352166 0.0968,0 0.17657,0.09905 0.17717,0.220105 5.3e-4,0.121057 0.11198,0.43267 0.24753,0.692473 0.13554,0.259802 0.29983,0.715418 0.36507,1.012479 0.0652,0.297062 0.18528,0.540112 0.26673,0.540112 0.0815,0 0.20031,0.237713 0.26413,0.52825 0.0638,0.290538 0.18896,0.528251 0.27811,0.528251 0.0892,0 0.16258,0.09905 0.16318,0.220104 0.001,0.246504 0.0636,0.369472 1.47671,2.908928 l 1.00628,1.808407 -1.85833,6.616174 c -1.02208,3.638894 -1.85833,6.695379 -1.85833,6.792185 0,0.202909 1.79651,0.0057 1.93692,-0.212641 0.0484,-0.07529 0.54366,-0.193691 1.10052,-0.263104 0.55686,-0.06941 1.01248,-0.187182 1.01248,-0.261707 0,-0.07453 0.43581,-0.189958 0.96846,-0.256509 0.53265,-0.06655 0.96846,-0.186756 0.96846,-0.267123 0,-0.08037 0.47542,-0.201303 1.0565,-0.268745 0.58108,-0.06744 1.0565,-0.186299 1.0565,-0.264126 0,-0.07783 0.47542,-0.196683 1.0565,-0.264125 0.58108,-0.06744 1.0565,-0.184947 1.0565,-0.261123 0,-0.07618 0.45562,-0.1953 1.01248,-0.26471 0.55686,-0.06941 1.06198,-0.205814 1.12247,-0.303115 0.0605,-0.0973 0.6599,-0.188307 1.33201,-0.202234 0.95233,-0.01974 1.2903,0.04269 1.53136,0.282829 0.17014,0.169479 0.42253,0.308144 0.56089,0.308144 0.13835,0 0.25154,0.07294 0.25154,0.162092 0,0.08915 0.2311,0.212852 0.51355,0.274886 0.28244,0.06204 0.55729,0.226809 0.61076,0.36616 0.0535,0.13935 0.21857,0.253365 0.36688,0.253365 0.14831,0 0.26965,0.07294 0.26965,0.162091 0,0.08915 0.23771,0.214305 0.52825,0.278117 0.29054,0.06381 0.52825,0.182668 0.52825,0.264126 0,0.08145 0.23771,0.20031 0.52825,0.264123 0.29054,0.06381 0.52825,0.178839 0.52825,0.255614 0,0.07677 0.31695,0.190269 0.70433,0.252214 0.38739,0.06194 0.70434,0.18211 0.70434,0.267033 0,0.08492 0.27733,0.206433 0.61629,0.270023 0.33896,0.06359 0.61629,0.182266 0.61629,0.263729 0,0.08146 0.35657,0.201581 0.79238,0.266935 0.4358,0.06535 0.79237,0.184076 0.79237,0.26383 0,0.07975 0.43581,0.199453 0.96846,0.266004 0.53266,0.06655 0.96846,0.188232 0.96846,0.270401 0,0.08217 0.51505,0.204552 1.14454,0.271968 0.6295,0.06741 1.14455,0.178094 1.14455,0.245957 0,0.121335 2.24431,0.462576 4.66621,0.709485 1.92548,0.1963 6.00209,0.197684 7.74767,0.0026 z"
         style="opacity:1;fill:#ffffff;fill-opacity:1;stroke:none;stroke-width:1.05650067;stroke-miterlimit:4;stroke-dasharray:none;stroke-opacity:1" />
    </g>
    <text
       xml:space="preserve"
       style="font-style:normal;font-variant:normal;font-weight:normal;font-stretch:normal;font-size:9.10474396px;line-height:1.25;font-family:'Sitka Small';-inkscape-font-specification:'Sitka Small';letter-spacing:0px;word-spacing:0px;fill:#1a1a1a;fill-opacity:1;stroke:none;stroke-width:0.2276186;"
       x="11.097054"
       y="7.8167243"
       id="text956"
       transform="matrix(0.97191177,0.45288036,-0.58030642,0.75849541,0,0)"><tspan
         sodipodi:role="line"
         id="tspan954"
         x="11.097054"
         y="7.8167243"
         style="font-style:normal;font-variant:normal;font-weight:normal;font-stretch:normal;font-family:'Sitka Small';-inkscape-font-specification:'Sitka Small';fill:#1a1a1a;stroke-width:0.2276186;">2</tspan></text>
  </g>
  <g
     inkscape:groupmode="layer"
     id="layer4"
     inkscape:label="Capa 4"
     style="display:none">
    <g
       id="g952"
       transform="matrix(0.08333333,0,0,0.08333333,-11.445423,20.777789)">
      <g
         transform="matrix(1.0017346,0,0,0.99730213,-0.23823371,-0.24438241)"
         id="g947">
        <rect
           style="opacity:1;fill:#1a73ec;fill-opacity:1;stroke:none;stroke-width:1.56668735;stroke-miterlimit:4;stroke-dasharray:none;stroke-opacity:1"
           id="rect943"
           width="158.47511"
           height="159.17944"
           x="137.34508"
           y="-249.76292" />
        <path
           style="opacity:1;fill:#ffffff;fill-opacity:1;stroke:none;stroke-width:1.49411762;stroke-miterlimit:4;stroke-dasharray:none;stroke-opacity:1"
           d="m 224.90168,-133.38055 v -28.26373 h -7.96863 -7.96862 l -5e-5,-12.51323 -4e-5,-12.51324 8.03093,0.087 8.03092,0.087 0.008,-11.66645 0.008,-11.66645 0.68127,-2.73922 c 0.80709,-3.24507 2.34026,-7.0206 3.54603,-8.73224 0.47599,-0.6757 1.13379,-1.62924 1.46178,-2.11898 0.91904,-1.37229 5.02268,-5.09682 7.27154,-6.59976 2.58151,-1.72527 5.77804,-3.2218 8.24384,-3.85955 2.8994,-0.7499 6.35616,-0.97751 17.81356,-1.17292 l 10.39681,-0.17733 -2.4e-4,12.47669 -2.5e-4,12.4767 -1.90522,0.16105 c -1.04787,0.0886 -5.19685,0.16105 -9.21995,0.16105 -8.33744,0 -9.29474,0.16581 -11.09255,1.92133 -1.83924,1.79597 -2.05344,2.5813 -2.12481,7.79043 -0.0347,2.53378 -0.0907,6.59596 -0.12451,9.02709 l -0.0614,4.42022 12.26422,-1.3e-4 12.26421,-1.2e-4 v 12.57549 12.57549 h -12.2019 -12.20196 v 28.26373 28.26372 h -12.57549 -12.57549 z"
           id="path941"
           inkscape:connector-curvature="0" />
      </g>
    </g>
  </g>
</svg>
